<svg viewBox="0 0 64 64" xmlns="http://www.w3.org/2000/svg">
  <path fill="#003087" d="M22.69 13.55c-.24 0-.44.17-.48.4L14.28 58.4c-.05.3.18.58.48.58h11.76c.24 0 .44-.17.48-.4l1.49-8.64c.04-.23.24-.4.48-.4h3.57c7.61 0 13.55-3.08 15.27-11.97.93-4.91 0-8.68-2.47-11.1-2.8-2.74-7.42-4.06-13.13-4.06H22.69zm25.6 11.6c.58.68 1.03 1.4 1.37 2.19-.9-1.3-2.07-2.4-3.6-3.3.74.31 1.42.72 2.03 1.21z"/>
  <path fill="#009CDE" d="M43.9 14.82C42.1 14 39.7 13.55 36.7 13.55H22.69c-.24 0-.44.17-.48.4L14.28 58.4c-.05.3.18.58.48.58h11.76c.24 0 .44-.17.48-.4l1.49-8.64c.04-.23.24-.4.48-.4h3.57c7.61 0 13.55-3.08 15.27-11.97.93-4.91 0-8.68-2.47-11.1-.94-.92-2.06-1.68-3.32-2.28z"/>
</svg>
